<?xml version="1.0" standalone="no"?>
<!DOCTYPE svg PUBLIC "-//W3C//DTD SVG 20010904//EN"
 "http://www.w3.org/TR/2001/REC-SVG-20010904/DTD/svg10.dtd">
<svg version="1.0" xmlns="http://www.w3.org/2000/svg"
 width="500.000000pt" height="500.000000pt" viewBox="0 0 500.000000 500.000000"
 preserveAspectRatio="xMidYMid meet">

<g transform="translate(0.000000,500.000000) scale(0.100000,-0.100000)"
fill="#F50057" stroke="none">
<path d="M2397 3899 c-393 -41 -715 -321 -823 -714 -30 -108 -27 -380 4 -490
93 -328 357 -585 687 -671 182 -47 428 -32 581 36 l44 19 0 119 c0 170 -24
242 -114 340 l-39 43 32 33 c115 118 313 128 437 22 22 -19 48 -49 58 -68 l19
-35 -38 -59 c-54 -85 -124 -162 -194 -214 -47 -35 -60 -51 -61 -71 -1 -65 66
-34 186 85 376 377 375 976 -2 1353 -202 202 -489 303 -777 272z m282 -84
c407 -85 700 -441 702 -851 1 -62 -4 -138 -11 -170 -11 -56 -39 -154 -46 -163
-2 -2 -28 19 -58 46 -161 148 -380 144 -542 -9 l-53 -50 -65 17 c-60 16 -186
18 -201 3 -3 -3 2 -18 11 -34 16 -28 20 -29 88 -29 123 -1 224 -64 283 -178
24 -45 28 -66 31 -163 l4 -111 -83 -24 c-64 -17 -116 -24 -219 -27 -118 -3
-147 0 -232 22 -208 53 -399 186 -517 359 l-32 47 23 46 c26 52 78 103 140
136 36 19 58 23 138 23 86 0 100 -3 148 -29 63 -35 102 -77 139 -149 22 -44
27 -68 31 -159 l5 -107 -40 -10 c-39 -11 -78 -5 -121 18 -17 9 -20 18 -15 44
9 51 38 110 73 150 30 35 31 39 20 67 -7 17 -18 30 -25 30 -19 0 -83 -83 -111
-145 -18 -38 -26 -75 -27 -118 l-2 -62 60 -30 c73 -36 148 -40 210 -10 l40 20
0 135 c-1 116 -4 143 -24 192 -64 162 -256 269 -426 237 -90 -16 -144 -46
-217 -120 l-66 -67 -15 42 c-57 152 -73 337 -43 487 35 174 113 316 246 449
128 128 273 209 435 244 92 19 275 20 364 1z"/>
<path d="M2003 3210 c-68 -15 -116 -61 -132 -127 -22 -83 16 -165 92 -202 55
-27 99 -27 155 0 125 61 132 241 12 307 -44 24 -86 31 -127 22z m96 -86 c30
-21 51 -71 44 -106 -3 -14 -18 -38 -33 -53 -53 -50 -136 -30 -166 41 -27 64
23 134 96 134 20 0 46 -7 59 -16z"/>
<path d="M2921 3210 c-110 -25 -167 -158 -110 -259 72 -128 262 -114 315 24
50 133 -66 266 -205 235z m93 -81 c14 -7 33 -28 42 -47 15 -32 15 -41 3 -76
-19 -54 -73 -83 -124 -66 -47 16 -75 53 -75 102 0 76 79 121 154 87z"/>
<path d="M2430 3069 c-88 -35 -129 -151 -85 -243 34 -72 132 -112 209 -86 151
49 166 252 25 326 -32 16 -112 18 -149 3z m133 -79 c63 -50 52 -146 -19 -176
-72 -30 -144 18 -144 98 0 82 98 129 163 78z"/>
<path d="M820 1760 l0 -30 85 0 85 0 0 -140 0 -140 35 0 34 0 3 138 3 137 83
3 82 3 0 29 0 30 -205 0 -205 0 0 -30z"/>
<path d="M1367 1784 c-4 -4 -7 -81 -7 -171 l0 -163 40 0 40 0 -2 168 -3 167
-30 3 c-17 2 -34 0 -38 -4z"/>
<path d="M1570 1620 l0 -170 35 0 35 0 0 133 0 132 131 -132 131 -133 49 0 49
0 0 170 0 170 -35 0 -35 0 0 -132 0 -133 -133 133 -132 132 -48 0 -47 0 0
-170z"/>
<path d="M2200 1620 l0 -170 35 0 34 0 3 123 3 122 75 -122 c100 -164 103
-164 201 -8 39 63 75 118 80 121 5 3 9 -49 9 -115 l0 -121 35 0 35 0 0 171 0
170 -52 -3 -53 -3 -74 -122 c-40 -67 -77 -121 -81 -118 -3 2 -39 58 -79 125
l-73 120 -49 0 -49 0 0 -170z"/>
<path d="M2894 1703 c-26 -49 -67 -123 -91 -167 -24 -43 -43 -80 -43 -82 0 -2
17 -4 38 -4 34 0 41 4 61 40 l22 40 107 0 107 0 20 -38 c18 -32 25 -37 62 -40
l41 -3 -91 170 -92 171 -47 0 -47 0 -47 -87z m134 -46 c18 -34 32 -65 32 -69
0 -9 -150 -11 -150 -2 0 11 72 134 78 134 4 0 22 -28 40 -63z"/>
<path d="M3260 1760 l0 -30 85 0 85 0 0 -140 0 -140 35 0 34 0 3 138 3 137 83
3 82 3 0 29 0 30 -205 0 -205 0 0 -30z"/>
<path d="M3720 1620 l0 -170 175 0 175 0 0 30 0 30 -140 0 -140 0 0 40 0 40
140 0 140 0 0 30 0 30 -140 0 -140 0 0 40 0 40 140 0 140 0 0 30 0 30 -175 0
-175 0 0 -170z"/>
</g>
</svg>
